<svg width="537" height="588" viewBox="0 0 537 588" fill="none" xmlns="http://www.w3.org/2000/svg">
<rect x="-220" y="271.383" width="542.354" height="542.354" rx="71" transform="rotate(-54.2903 -220 271.383)" fill="url(#paint0_linear)"/>
<path d="M164.209 251.636C164.714 251.923 165.287 252.07 165.867 252.062C166.448 252.055 167.016 251.894 167.514 251.595L183.921 241.752C184.406 241.46 184.809 241.048 185.088 240.555C185.367 240.062 185.514 239.505 185.514 238.938C185.514 238.371 185.367 237.814 185.088 237.321C184.809 236.828 184.406 236.416 183.921 236.124L167.514 226.28C167.016 225.982 166.448 225.82 165.867 225.813C165.287 225.806 164.715 225.952 164.209 226.238C163.704 226.524 163.284 226.939 162.991 227.441C162.699 227.943 162.544 228.513 162.544 229.094V248.781C162.544 249.362 162.699 249.932 162.991 250.434C163.284 250.935 163.704 251.35 164.209 251.636V251.636ZM169.107 234.889L175.854 238.937L169.107 242.986V234.889Z" fill="white"/>
<path d="M277.387 104.406H222.701L210.451 95.2188C209.883 94.7928 209.192 94.5625 208.482 94.5625C207.772 94.5625 207.081 94.7928 206.513 95.2188L194.263 104.406H139.574C138.704 104.406 137.87 104.752 137.254 105.367C136.639 105.983 136.293 106.817 136.293 107.688V132.025C133.922 133.058 131.828 134.638 130.185 136.636C128.541 138.633 127.393 140.991 126.835 143.517C126.277 146.043 126.325 148.666 126.975 151.17C127.624 153.674 128.858 155.988 130.573 157.925C130.001 158.383 129.454 158.874 128.936 159.393C127.102 161.217 125.648 163.386 124.658 165.775C123.668 168.164 123.161 170.726 123.168 173.312V199.562H108.07C106.113 199.565 104.236 200.343 102.852 201.727C101.468 203.111 100.69 204.988 100.688 206.945V271.75H94.125C93.2548 271.75 92.4202 272.096 91.8048 272.711C91.1895 273.326 90.8438 274.161 90.8438 275.031V279.133C90.8474 282.395 92.145 285.523 94.4518 287.829C96.7586 290.136 99.8862 291.434 103.148 291.438H215.865C218.964 291.439 221.949 290.267 224.219 288.156H251.138C252.008 288.156 252.843 287.811 253.458 287.195C254.074 286.58 254.419 285.745 254.419 284.875V275.031H247.857V281.594H227.923C228.088 280.784 228.17 279.959 228.169 279.133V275.031C228.169 274.161 227.824 273.326 227.208 272.711C226.593 272.096 225.758 271.75 224.888 271.75H218.812V206.945C218.81 204.988 218.032 203.111 216.648 201.727C215.264 200.343 213.387 199.565 211.43 199.562H162.543V193H247.856V202.844H254.418V193H277.387C278.257 193 279.092 192.654 279.707 192.039C280.322 191.424 280.668 190.589 280.668 189.719V107.688C280.668 106.817 280.322 105.983 279.707 105.367C279.092 104.752 278.257 104.406 277.387 104.406ZM208.481 101.945L211.762 104.406H205.199L208.481 101.945ZM142.856 110.969H274.106V173.312H177.357L186.664 169.822C187.418 169.54 188.042 168.989 188.417 168.276C188.791 167.562 188.89 166.736 188.695 165.955L186.46 157.013L204.409 136.073C204.69 135.746 204.903 135.367 205.037 134.957C205.171 134.548 205.223 134.116 205.19 133.686C205.157 133.256 205.04 132.837 204.845 132.453C204.65 132.069 204.381 131.727 204.054 131.446C203.727 131.166 203.347 130.952 202.938 130.819C202.528 130.685 202.096 130.633 201.667 130.666C201.237 130.699 200.818 130.816 200.434 131.011C200.049 131.206 199.707 131.475 199.427 131.802L183.359 150.546C182.623 150.275 181.814 150.277 181.079 150.551L156.973 159.592C156.397 159 155.784 158.444 155.139 157.928C157.234 155.562 158.601 152.643 159.076 149.519C159.551 146.395 159.113 143.201 157.815 140.32C156.518 137.439 154.416 134.995 151.762 133.28C149.108 131.566 146.015 130.655 142.856 130.656V110.969ZM221.606 279.133C221.604 280.655 220.999 282.115 219.922 283.191C218.846 284.268 217.386 284.873 215.863 284.875H103.148C101.626 284.873 100.166 284.268 99.0899 283.191C98.0134 282.115 97.4079 280.655 97.4062 279.133V278.312H221.607L221.606 279.133ZM129.613 244.229C128.52 243.426 127.703 242.304 127.274 241.018C126.844 239.732 126.824 238.345 127.215 237.047C127.606 235.748 128.389 234.603 129.458 233.768C130.526 232.934 131.827 232.45 133.181 232.385C133.286 232.38 133.394 232.377 133.501 232.377C134.884 232.377 136.231 232.813 137.351 233.624C138.471 234.434 139.306 235.578 139.737 236.892C140.168 238.205 140.172 239.621 139.751 240.938C139.329 242.255 138.502 243.404 137.388 244.223C136.934 244.556 136.573 245.001 136.341 245.514C136.108 246.027 136.012 246.591 136.061 247.152C136.11 247.714 136.302 248.253 136.62 248.718C136.937 249.183 137.369 249.559 137.874 249.809C139.067 250.4 140.127 251.228 140.989 252.243C141.465 252.8 142.113 253.182 142.832 253.328C143.55 253.474 144.297 253.375 144.952 253.047L150.784 250.129L151.969 253.684L145.158 257.091C144.613 257.363 144.155 257.782 143.835 258.3C143.514 258.818 143.344 259.415 143.344 260.024V271.75H123.656V258.625C123.657 256.792 124.169 254.996 125.134 253.438C126.1 251.88 127.482 250.622 129.123 249.807C129.627 249.557 130.057 249.181 130.374 248.717C130.691 248.253 130.883 247.715 130.932 247.155C130.981 246.595 130.886 246.032 130.655 245.519C130.424 245.007 130.065 244.562 129.613 244.229V244.229ZM159.094 254.306L155.812 244.462C155.664 244.016 155.421 243.607 155.101 243.263C154.78 242.919 154.389 242.648 153.955 242.468C153.521 242.289 153.053 242.204 152.583 242.221C152.113 242.238 151.652 242.355 151.232 242.565L144.643 245.861C145.754 244.077 146.42 242.053 146.585 239.957C146.75 237.862 146.409 235.758 145.59 233.822C144.772 231.887 143.5 230.176 141.882 228.835C140.264 227.493 138.347 226.561 136.294 226.115V219.25H199.125V258.625H156.756L157.449 258.278C158.155 257.925 158.71 257.329 159.013 256.599C159.315 255.869 159.344 255.055 159.094 254.306ZM212.25 206.945V271.75H149.906V265.188H202.406C203.276 265.188 204.111 264.842 204.726 264.226C205.342 263.611 205.688 262.776 205.688 261.906V215.969C205.688 215.099 205.342 214.264 204.726 213.649C204.111 213.033 203.276 212.688 202.406 212.688H133.012C132.142 212.688 131.307 213.033 130.692 213.649C130.076 214.264 129.731 215.099 129.731 215.969V226.36C127.755 226.952 125.946 228.001 124.452 229.423C122.958 230.844 121.819 232.598 121.13 234.542C120.44 236.486 120.219 238.565 120.483 240.61C120.748 242.656 121.491 244.61 122.652 246.315C122.394 246.543 122.142 246.779 121.898 247.023C120.37 248.543 119.158 250.351 118.334 252.343C117.509 254.334 117.088 256.47 117.094 258.625V271.75H107.25V206.945C107.25 206.728 107.336 206.519 107.49 206.365C107.644 206.211 107.853 206.125 108.07 206.125H211.43C211.647 206.125 211.856 206.211 212.01 206.365C212.164 206.519 212.25 206.728 212.25 206.945ZM129.731 199.562V173.312C129.733 170.782 130.466 168.306 131.841 166.181C133.216 164.057 135.175 162.374 137.483 161.336C138.031 161.091 138.501 160.7 138.842 160.206C139.183 159.711 139.382 159.133 139.418 158.534C139.453 157.934 139.323 157.337 139.042 156.806C138.761 156.275 138.34 155.832 137.825 155.524C135.972 154.422 134.533 152.741 133.727 150.742C132.922 148.742 132.796 146.533 133.367 144.454C133.939 142.376 135.177 140.542 136.892 139.235C138.606 137.929 140.703 137.221 142.859 137.221C145.014 137.221 147.111 137.929 148.825 139.235C150.54 140.542 151.778 142.376 152.35 144.454C152.922 146.533 152.795 148.742 151.99 150.742C151.185 152.741 149.745 154.422 147.892 155.524C147.377 155.832 146.956 156.275 146.675 156.805C146.394 157.336 146.264 157.933 146.299 158.532C146.334 159.132 146.533 159.71 146.874 160.204C147.215 160.698 147.684 161.089 148.232 161.335C150.26 162.247 152.023 163.658 153.359 165.436C153.785 166.003 154.383 166.417 155.063 166.616C155.744 166.815 156.471 166.787 157.135 166.538L179.942 157.985L181.621 164.703L158.109 173.521C157.484 173.756 156.945 174.176 156.565 174.725C156.184 175.274 155.981 175.926 155.981 176.594V199.562H129.731ZM162.543 186.438V179.875H274.106V186.438H162.543Z" fill="white"/>
<path d="M251.138 209.406C246.595 209.406 242.155 210.753 238.377 213.277C234.6 215.801 231.656 219.388 229.918 223.585C228.179 227.782 227.724 232.4 228.611 236.856C229.497 241.311 231.685 245.404 234.897 248.616C238.109 251.829 242.202 254.016 246.657 254.902C251.113 255.789 255.731 255.334 259.928 253.595C264.125 251.857 267.712 248.913 270.236 245.136C272.76 241.359 274.107 236.918 274.107 232.375C274.1 226.285 271.678 220.447 267.372 216.141C263.066 211.835 257.228 209.413 251.138 209.406V209.406ZM267.216 229.094H261.756C261.441 226.217 260.704 223.403 259.569 220.741L258.21 217.572C260.497 218.67 262.499 220.28 264.061 222.279C265.623 224.277 266.702 226.61 267.215 229.094H267.216ZM251.138 247.013L248.741 241.424C247.954 239.58 247.413 237.641 247.132 235.656H255.145C254.864 237.64 254.323 239.578 253.537 241.421L251.138 247.013ZM247.132 229.094C247.413 227.11 247.954 225.172 248.74 223.329L251.138 217.737L253.535 223.326C254.322 225.17 254.863 227.109 255.145 229.094H247.132ZM244.068 217.573L242.707 220.744C241.573 223.405 240.837 226.218 240.522 229.094H235.062C235.574 226.609 236.654 224.277 238.216 222.279C239.778 220.28 241.781 218.67 244.068 217.573V217.573ZM235.062 235.656H240.522C240.837 238.533 241.574 241.347 242.709 244.009L244.068 247.177C241.781 246.08 239.778 244.47 238.216 242.471C236.654 240.473 235.574 238.141 235.062 235.656V235.656ZM258.209 247.178L259.569 244.006C260.704 241.345 261.441 238.532 261.756 235.656H267.216C266.704 238.141 265.624 240.473 264.062 242.472C262.499 244.47 260.496 246.081 258.209 247.178V247.178Z" fill="white"/>
<path d="M254.419 261.906H247.857V268.469H254.419V261.906Z" fill="white"/>
<defs>
<linearGradient id="paint0_linear" x1="51.1771" y1="271.383" x2="51.1771" y2="813.737" gradientUnits="userSpaceOnUse">
<stop stop-color="#144BBC"/>
<stop offset="1" stop-color="#507CFF"/>
</linearGradient>
</defs>
</svg>
